<?xml version="1.0" encoding="UTF-8" standalone="no"?>
<svg
  viewBox="60 58 102 142"
  version="1.1"
  preserveAspectRatio="xMidYMid meet"
  xmlns="http://www.w3.org/2000/svg"
>
  <g>
    <path
      style="display:inline;fill:#a8b69b;fill-opacity:0.34;fill-rule:evenodd;stroke-width:0.0737499"
      d="m 102.94883,70.533141 a 100.59554,62.985964 0 0 0 -25.37055,2.344042 v 50.000047 c 18.443386,23.30346 44.91039,45.44304 24.77265,60.59992 -6.786293,5.10777 -15.463808,7.55416 -24.77265,7.84035 v 2.76985 a 100.59554,62.985964 0 0 0 64.21727,-2.12855 C 175.08623,152.90849 75.004786,108.46 107.43279,84.052729 c 7.04123,-5.29965 18.13947,-7.702934 30.48341,-6.950997 v -3.028756 a 100.59554,62.985964 0 0 0 -34.96737,-3.539835 z"
    />
    <path
      style="font-size:193.468px;font-family:'Museo Sans';display:inline;fill:#eef2e7;fill-opacity:1;fill-rule:evenodd;stroke:#b7c4aa;stroke-width:3.80842;stroke-opacity:0.28"
      d="M 66.22633,62.661297 V 199.24935 h 48.9474 c 23.98994,0 43.91721,-13.15587 43.91721,-38.88703 0,-15.28394 -6.08831,-27.05237 -19.21073,-34.18562 -5.41028,-2.94099 -14.16883,-5.84519 -25.86714,-6.05533 H 88.847093 v 15.86414 h 27.100747 c 14.3166,0 23.60321,9.47976 23.60321,23.40943 0,13.92964 -8.70641,23.21615 -23.40994,23.21615 H 85.37968 v -46.62558 h 0.0822 v -15.86414 h -0.0822 V 79.299557 l 28.21735,0.332939 c 13.15489,0.155216 20.50779,8.125239 20.50779,20.120218 0,7.448486 -4.93026,15.449826 -7.83101,18.755726 0,0 6.92212,1.3843 10.09493,2.63299 5.94675,2.34041 8.06422,4.4358 8.06422,4.4358 3.54111,-5.29007 9.21227,-20.40325 9.21227,-27.758764 0,-22.055283 -16.60953,-35.157169 -39.63216,-35.157169 z"
    />
  </g>
</svg>
